<?xml version="1.0" encoding="UTF-8" standalone="no"?>
<svg
   version="1.0"
   width="372.000000pt"
   height="72.000000pt"
   viewBox="0 0 372.000000 72.000000"
   preserveAspectRatio="xMidYMid meet"
   id="svg225"
   sodipodi:docname="openred_on_dark.svg"
   inkscape:version="1.1 (c4e8f9e, 2021-05-24)"
   xmlns:inkscape="http://www.inkscape.org/namespaces/inkscape"
   xmlns:sodipodi="http://sodipodi.sourceforge.net/DTD/sodipodi-0.dtd"
   xmlns="http://www.w3.org/2000/svg"
   xmlns:svg="http://www.w3.org/2000/svg">
  <defs
     id="defs229" />
  <sodipodi:namedview
     id="namedview227"
     pagecolor="#ffffff"
     bordercolor="#666666"
     borderopacity="1.0"
     inkscape:pageshadow="2"
     inkscape:pageopacity="0.0"
     inkscape:pagecheckerboard="0"
     inkscape:document-units="pt"
     showgrid="false"
     inkscape:zoom="2.2721774"
     inkscape:cx="248"
     inkscape:cy="47.971606"
     inkscape:window-width="1296"
     inkscape:window-height="990"
     inkscape:window-x="0"
     inkscape:window-y="38"
     inkscape:window-maximized="0"
     inkscape:current-layer="svg225" />
  <g
     transform="translate(0.000000,72.000000) scale(0.100000,-0.100000)"
     fill="#000000"
     stroke="none"
     id="g223">
    <path
       d="M322 648 c-90 -39 -160 -110 -178 -183 l-7 -27 26 17 c15 9 29 25 32 35 9 30 86 101 130 121 57 26 168 25 229 -2 47 -20 121 -89 131 -120 8 -23 55 -55 55 -37 0 21 -38 86 -71 122 -78 86 -238 120 -347 74z"
       id="path197" />
    <path
       d="M3470 595 l0 -76 -37 8 c-87 18 -160 -6 -199 -65 -28 -41 -27 -180 2 -219 48 -67 158 -91 242 -53 l42 19 -2 228 c-3 228 -3 228 -25 231 -22 3 -23 0 -23 -73z m-22 -121 c20 -14 22 -23 22 -123 0 -75 -4 -112 -12 -118 -36 -29 -125 -20 -160 15 -49 48 -42 166 12 215 35 32 101 37 138 11z"
       id="path199" />
    <path
       d="M371 589 c-35 -11 -116 -58 -109 -64 2 -2 23 3 47 11 89 31 190 27 296 -10 14 -6 11 0 -10 18 -54 47 -149 66 -224 45z"
       id="path201" />
    <path
       d="M1013 530 c-97 -23 -146 -116 -122 -230 33 -152 246 -177 310 -36 66 146 -43 301 -188 266z m96 -54 c36 -19 51 -55 51 -121 0 -68 -12 -99 -46 -121 -81 -54 -174 8 -174 115 0 112 81 172 169 127z"
       id="path203" />
    <path
       d="M1425 534 c-48 -11 -96 -39 -101 -58 -2 -12 -3 -113 -2 -226 l3 -205 25 0 c24 0 25 3 28 72 l3 72 25 -9 c71 -27 166 3 204 65 17 27 22 51 22 103 1 87 -24 137 -82 167 -29 15 -97 25 -125 19z m89 -54 c45 -17 68 -66 64 -138 -4 -54 -8 -67 -35 -93 -26 -26 -39 -31 -81 -32 -77 -1 -82 7 -82 139 0 97 2 114 18 123 22 13 83 14 116 1z"
       id="path205" />
    <path
       d="M1827 526 c-49 -18 -64 -32 -89 -79 -28 -56 -23 -158 11 -206 46 -64 157 -90 231 -53 42 20 57 59 19 48 -64 -19 -94 -24 -126 -19 -39 7 -93 55 -93 83 0 21 8 23 147 41 51 6 98 18 104 25 12 15 -2 77 -26 112 -34 48 -117 70 -178 48z m124 -65 c26 -27 40 -70 22 -72 -5 0 -51 -6 -103 -13 -52 -7 -97 -11 -99 -10 -2 2 1 22 8 43 24 82 115 109 172 52z"
       id="path207" />
    <path
       d="M2217 526 c-85 -23 -87 -28 -87 -198 l0 -148 25 0 25 0 0 139 c0 160 1 162 83 169 42 3 57 0 77 -16 24 -19 25 -26 30 -154 5 -129 6 -133 28 -136 13 -2 22 2 23 10 3 89 -4 275 -12 290 -23 43 -116 65 -192 44z"
       id="path209" />
    <path
       d="M2643 530 c-23 -5 -53 -16 -67 -26 l-26 -16 0 -154 0 -154 25 0 25 0 0 144 0 144 31 11 c18 6 51 11 75 11 43 0 64 14 47 31 -14 14 -65 18 -110 9z"
       id="path211" />
    <path
       d="M2925 525 c-48 -17 -93 -67 -101 -113 -10 -55 1 -140 22 -170 47 -64 162 -91 234 -54 42 20 57 59 19 48 -69 -21 -97 -24 -134 -16 -66 15 -114 94 -62 104 12 2 67 10 122 18 l100 13 3 40 c6 97 -102 167 -203 130z m126 -64 c16 -16 29 -38 29 -49 0 -22 -13 -26 -115 -37 -33 -3 -68 -8 -77 -11 -38 -11 -10 79 34 110 38 27 95 20 129 -13z"
       id="path213" />
    <path
       d="M355 509 c-54 -18 -151 -69 -189 -101 l-37 -31 26 -27 c37 -39 158 -96 233 -111 55 -12 71 -11 130 5 37 10 69 21 72 26 3 4 16 11 30 15 14 4 49 26 79 48 l55 40 -40 33 c-108 92 -260 135 -359 103z m145 -24 c58 -30 79 -122 41 -179 -54 -81 -166 -73 -211 14 -25 50 -25 66 3 115 36 63 103 83 167 50z"
       id="path215" />
    <path
       d="M386 418 c-45 -64 24 -136 94 -98 27 14 35 65 16 95 -22 34 -88 35 -110 3z m82 -10 c18 -18 15 -42 -7 -62 -15 -14 -24 -15 -40 -6 -36 19 -22 80 19 80 9 0 21 -5 28 -12z"
       id="path217" />
    <path
       d="M130 303 c0 -5 13 -33 29 -63 106 -208 397 -229 536 -40 19 26 38 62 41 80 6 30 5 31 -12 20 -10 -7 -34 -36 -52 -64 -63 -98 -181 -151 -284 -127 -71 16 -137 59 -173 112 -48 73 -86 109 -85 82z"
       id="path219" />
    <path
       d="M255 221 c11 -13 40 -35 65 -50 37 -21 57 -26 115 -26 76 0 122 16 169 60 27 25 30 49 4 27 -18 -14 -129 -42 -170 -42 -30 0 -134 26 -183 45 -20 8 -20 8 0 -14z"
       id="path221" />
  </g>
  <path
     style="fill:#aa0000;stroke-width:0.440106"
     d="m 176.54583,68.48364 c -0.16571,-11.894509 -0.16656,-24.913395 -0.002,-28.930858 0.35471,-8.654235 0.39076,-8.726223 5.76636,-11.515005 5.25058,-2.723918 7.89249,-3.343726 12.86716,-3.01871 12.0476,0.78712 19.03013,5.944997 21.34584,15.767821 0.86266,3.65922 0.88822,14.24484 0.0421,17.423352 -2.94803,11.07424 -16.97326,17.671739 -28.82702,13.560295 -1.79732,-0.623393 -3.43121,-1.133445 -3.63087,-1.133445 -0.19967,0 -0.37311,1.831943 -0.38543,4.070985 -0.038,6.901234 -0.69041,13.554491 -1.3986,14.262684 -0.35207,0.352068 -1.72827,0.752424 -3.05823,0.889689 l -2.41811,0.249571 z m 23.94701,-1.866797 c 2.02785,-0.60756 5.65468,-3.51232 7.47361,-5.985676 1.93772,-2.634886 2.75392,-6.968838 2.50847,-13.319721 -0.32021,-8.28542 -2.45173,-12.46883 -7.65952,-15.032894 -2.90577,-1.430661 -3.13938,-1.471099 -8.49881,-1.471099 -4.6307,0 -5.79209,0.14059 -7.27134,0.880213 -2.85154,1.425771 -3.02161,2.160389 -3.20958,13.863354 -0.23965,14.920814 0.51873,19.349997 3.5709,20.855197 1.70098,0.838851 10.51589,0.980728 13.08627,0.210626 z"
     id="path379"
     transform="scale(0.75)" />
  <path
     style="fill:#aa0000;stroke-width:0.440106"
     d="m 247.11979,72.174263 c -6.99027,-1.703908 -12.5439,-5.781531 -15.03105,-11.036186 -4.42067,-9.339677 -2.92254,-22.64194 3.37912,-30.004019 2.69555,-3.14914 10.1263,-6.257011 14.95273,-6.253895 2.61132,0.0017 7.45489,1.12858 10.14571,2.360478 3.48639,1.596122 6.40999,4.547257 8.06768,8.143654 1.60244,3.476532 2.83745,8.772471 2.42705,10.407614 -0.49707,1.980499 -4.0932,3.085734 -14.91906,4.585223 -15.96692,2.211577 -17.99465,2.649613 -18.74361,4.049042 -1.55517,2.905869 2.81476,8.491432 9.28132,11.863205 3.08093,1.606448 9.11127,1.442387 16.01716,-0.435762 2.87901,-0.782984 5.50315,-1.320541 5.83142,-1.194572 0.96391,0.369887 0.69345,1.436336 -0.79388,3.130303 -3.73131,4.249732 -13.04324,6.230462 -20.61459,4.384915 z m 4.51742,-26.387515 c 6.47855,-0.83156 11.97438,-1.632566 12.21295,-1.780014 1.55723,-0.962417 -1.00571,-7.39057 -4.03941,-10.131337 -2.71276,-2.450813 -5.31297,-3.455284 -8.98415,-3.470603 -5.34796,-0.02231 -10.15626,3.014461 -12.69876,8.020144 -0.6523,1.284255 -2.45082,7.534265 -2.45082,8.516803 0,0.668568 4.01908,0.377719 15.96019,-1.154993 z"
     id="path418"
     transform="scale(0.75)" />
  <path
     style="fill:#aa0000;stroke-width:0.440106"
     d="M 52.221764,63.989982 C 44.177807,62.30127 31.443637,56.808066 24.550777,52.053407 c -3.459088,-2.386059 -6.916619,-5.838656 -6.508423,-6.499132 0.675948,-1.093706 7.091619,-5.880795 11.224727,-8.37539 5.648351,-3.409144 14.115821,-7.48975 18.264419,-8.80191 11.156131,-3.528573 28.254664,0.281031 41.592746,9.266989 2.982285,2.009186 10.808778,8.332686 10.702043,8.646834 -0.133031,0.391543 -8.996753,6.708042 -12.341686,8.794976 -1.747531,1.090301 -4.206982,2.373602 -5.465449,2.851781 -1.258462,0.47818 -2.760185,1.240747 -3.33716,1.694595 -1.231823,0.968954 -7.577599,3.130832 -12.886076,4.390028 -4.618222,1.095464 -8.243655,1.086865 -13.574154,-0.0322 z m 13.935451,-3.020628 c 8.047052,-4.312497 10.9185,-13.867828 6.874991,-22.877959 -1.361848,-3.034602 -4.512345,-6.247067 -7.363386,-7.508219 -4.416015,-1.953413 -10.250493,-1.87662 -14.325921,0.188555 -4.132032,2.093859 -8.623529,8.19972 -9.759074,13.266746 -1.272962,5.680214 4.699072,15.232296 11.1053,17.762577 1.8972,0.749342 3.092294,0.894212 6.505196,0.788564 3.781923,-0.117071 4.44655,-0.27173 6.962894,-1.620264 z"
     id="path457"
     transform="scale(0.75)" />
  <path
     style="fill:#aa0000;stroke-width:0.440106"
     d="m 18.938924,35.758651 c 2.028045,-6.837431 4.457184,-11.032467 9.079036,-15.67917 5.03143,-5.058482 12.080327,-9.407875 18.633327,-11.4973522 3.910372,-1.246854 13.130112,-1.6995912 18.169606,-0.8922222 11.468893,1.8374117 20.952928,7.2621664 26.87993,15.3749964 3.982189,5.450789 7.3972,12.216253 6.579271,13.034179 -0.359316,0.359319 -2.535938,-0.77945 -4.255614,-2.226463 -0.75025,-0.631294 -2.011793,-2.363241 -2.803426,-3.848769 -2.49752,-4.686688 -10.304926,-11.896424 -16.000035,-14.775209 -8.579,-4.336544 -24.707573,-4.571605 -32.825155,-0.478401 -5.129257,2.586373 -14.234793,11.037125 -16.331399,15.157 -1.130222,2.220908 -2.899509,4.127976 -5.4474,5.871606 -1.75362,1.200077 -2.043954,1.193123 -1.678141,-0.04019 z"
     id="path496"
     transform="scale(0.75)" />
  <path
     style="fill:#aa0000;stroke-width:0.440106"
     d="m 36.518493,24.644146 c 2.148193,-1.755367 9.476922,-5.647348 12.640909,-6.713057 6.034504,-2.032571 14.755021,-1.635684 21.727827,0.988873 3.093135,1.164253 8.214974,4.338538 9.667836,5.991691 0.860373,0.978981 0.860294,0.982224 -0.01558,0.657963 -6.51875,-2.41333 -14.904904,-3.836338 -22.585688,-3.832464 -6.598781,0.0033 -10.132407,0.547859 -17.191155,2.64915 -5.461645,1.625856 -5.954982,1.655828 -4.244149,0.257844 z"
     id="path535"
     transform="scale(0.75)" />
  <path
     style="fill:#aa0000;stroke-width:0.440106"
     d="m 55.01331,53.623081 c -3.361136,-1.768822 -5.061225,-4.407489 -5.061225,-7.855405 0,-5.334167 4.913495,-9.192971 10.406208,-8.172496 4.392182,0.81601 6.738365,3.663342 6.750705,8.192666 0.01478,5.424172 -3.069271,8.585773 -8.338011,8.547683 -1.340547,-0.0097 -3.031502,-0.330293 -3.757677,-0.712448 z m 6.654672,-3.783524 c 1.591104,-1.503325 2.033421,-2.25396 2.241264,-3.803542 0.846927,-6.314308 -7.491552,-8.670261 -10.068457,-2.84474 -1.436124,3.246596 -0.459356,6.317111 2.49284,7.836356 2.102913,1.082192 3.187094,0.840722 5.334353,-1.188074 z"
     id="path574"
     transform="scale(0.75)" />
  <path
     style="fill:#aa0000;stroke-width:0.440106"
     d="m 49.952085,75.905542 c -4.321933,-0.89769 -14.09824,-6.951382 -16.059205,-9.944193 -0.900593,-1.374478 -1.629392,-1.477381 5.936756,0.838247 7.896168,2.416631 15.200774,3.922903 18.924579,3.902408 5.820664,-0.03203 19.42898,-3.398308 22.693483,-5.613661 1.71954,-1.166912 1.962615,-0.646179 0.638454,1.367735 -2.13931,3.253665 -8.540066,7.400051 -13.669551,8.855084 -2.8582,0.810759 -15.468417,1.216687 -18.464516,0.59438 z"
     id="path613"
     transform="scale(0.75)" />
  <path
     style="fill:#aa0000;stroke-width:0.440106"
     d="m 51.287281,85.768056 c -8.295082,-1.542703 -15.459303,-5.137129 -21.236844,-10.65493 -4.51206,-4.309213 -6.651344,-7.333359 -9.99358,-14.127178 -2.656531,-5.399976 -2.904664,-6.818906 -1.015652,-5.807938 1.247139,0.667449 4.82204,4.914983 8.010445,9.517642 1.509132,2.178527 3.565705,4.817882 4.57016,5.865234 7.341979,7.655524 19.688473,12.627605 29.225014,11.769262 11.689277,-1.052101 21.626485,-7.152298 29.085031,-17.854549 3.650806,-5.238535 8.056215,-9.828249 8.322567,-8.670753 0.340445,1.479483 -1.610173,6.677779 -3.896878,10.384968 -7.480059,12.12663 -20.167404,19.510026 -34.503063,20.079043 -3.290743,0.130617 -6.034465,-0.02977 -8.5672,-0.500801 z"
     id="path652"
     transform="scale(0.75)" />
  <path
     style="fill:#aa0000;stroke-width:0.440106"
     d="m 134.75678,72.177119 c -5.95514,-1.637112 -11.29728,-5.964811 -13.89266,-11.254523 -1.89553,-3.863319 -2.83663,-9.183559 -2.51165,-14.19891 0.70987,-10.955266 7.12377,-18.852568 17.24567,-21.234243 12.49651,-2.94042 24.48434,5.914809 26.61725,19.66176 1.23494,7.959353 -1.93582,17.564321 -7.42753,22.499747 -2.15691,1.938431 -5.6223,3.771532 -8.67251,4.587533 -2.75491,0.737002 -8.56869,0.705596 -11.35857,-0.06136 z m 12.38226,-6.375775 c 3.31894,-1.769118 5.483,-4.153024 6.55335,-7.219083 1.16974,-3.350787 1.13791,-16.198279 -0.0486,-19.607152 -1.79891,-5.168404 -7.05086,-8.491522 -13.46989,-8.522941 -9.01331,-0.04412 -14.97605,7.5183 -14.95839,18.971447 0.01,6.202079 1.82948,10.722816 5.79452,14.393746 3.25073,3.0096 5.29499,3.757609 9.82403,3.594683 3.01624,-0.108503 3.91988,-0.339354 6.30497,-1.6107 z"
     id="path691"
     transform="scale(0.75)" />
  <path
     style="fill:#aa0000;stroke-width:0.440106"
     d="m 284.09589,57.984028 c 0.0125,-24.341005 0.74734,-27.934555 6.17636,-30.202943 10.39335,-4.342618 23.87449,-3.18179 29.41319,2.532697 1.83846,1.896814 2.1212,4.208045 2.75298,22.50384 0.56285,16.300114 0.41463,18.375573 -1.33025,18.62613 -1.71797,0.246697 -2.95457,-0.288895 -3.51698,-1.523257 -0.29516,-0.647797 -0.7222,-4.56399 -0.94899,-8.702657 -1.43113,-26.116778 -1.31974,-25.270449 -3.62505,-27.54371 -2.6544,-2.617488 -3.51517,-2.871308 -9.56373,-2.820098 -6.03454,0.05109 -8.62936,0.568731 -10.37415,2.069539 -2.10347,1.809331 -2.39745,4.254322 -2.69565,22.419821 l -0.27274,16.614019 h -3.01107 -3.01108 z"
     id="path730"
     transform="scale(0.75)" />
  <path
     style="fill:#aa0000;stroke-width:0.440106"
     d="m 340.52803,51.394083 0.11438,-20.563326 2.8607,-1.671134 c 7.62909,-4.456696 19.37357,-5.63491 23.21678,-2.329123 1.04792,0.901383 1.11001,1.10041 0.55275,1.771861 -1.00763,1.214117 -2.53105,1.587934 -8.24698,2.023644 -3.55664,0.271113 -6.57983,0.788529 -8.91215,1.52531 l -3.52966,1.115019 v 19.345537 19.345538 h -3.0851 -3.08509 z"
     id="path769"
     transform="scale(0.75)" />
  <path
     style="fill:#aa0000;stroke-width:0.440106"
     d="m 393.32999,71.949201 c -6.51649,-1.707314 -12.79973,-6.102561 -14.60491,-10.216416 -2.36642,-5.392872 -3.14213,-17.570854 -1.42793,-22.417129 2.3,-6.50239 8.37417,-11.972815 15.29612,-13.775752 10.30182,-2.683284 21.49107,3.586298 23.81601,13.344626 0.39473,1.656775 0.49989,3.679255 0.3154,6.065895 l -0.27676,3.580415 -2.69423,0.292879 c -1.48183,0.161083 -8.23958,1.082268 -15.01722,2.047078 -13.6729,1.946362 -14.42512,2.199125 -14.65827,4.925491 -0.17352,2.029194 1.06224,4.416666 3.50926,6.779839 5.30318,5.121462 12.43124,6.035949 23.05069,2.957261 4.07894,-1.182524 5.04242,-1.14571 5.04242,0.192666 0,1.068603 -3.51572,4.32708 -5.63794,5.225417 -4.90198,2.075009 -11.17215,2.449333 -16.71264,0.99773 z m -6.22715,-24.628069 c 1.31527,-0.236731 5.76497,-0.823798 9.88823,-1.304592 11.97758,-1.39665 13.84833,-2.030219 13.84833,-4.690045 0,-3.008104 -3.72986,-7.610058 -7.6841,-9.480749 -3.57804,-1.692718 -8.55405,-1.783422 -11.91741,-0.217234 -4.09815,1.908354 -8.06445,7.748447 -8.47325,12.476279 -0.33217,3.841475 -0.0983,4.014859 4.3382,3.216341 z"
     id="path808"
     transform="scale(0.75)" />
  <path
     style="fill:#aa0000;stroke-width:0.440106"
     d="m 446.26797,72.217305 c -5.36743,-1.237742 -9.55769,-3.493605 -12.85206,-6.919015 -3.63458,-3.779146 -4.73635,-8.341844 -4.42643,-18.330973 0.27352,-8.81618 1.0997,-11.40037 4.86961,-15.231498 2.97238,-3.020646 6.74875,-5.102647 10.78014,-5.943342 4.38133,-0.913668 12.17794,-0.416549 17.36254,1.107052 0.71309,0.209554 0.77207,-0.371358 0.79555,-7.835266 0.0139,-4.433881 0.16585,-8.853793 0.33755,-9.822027 0.30249,-1.7057467 0.36645,-1.7604259 2.05921,-1.7604259 1.49725,0 1.83527,0.1840941 2.36416,1.2875948 0.79497,1.6586601 1.31916,17.8491741 1.35151,41.7439251 l 0.0237,17.505342 -3.35112,1.527156 c -1.84312,0.839939 -4.36823,1.839526 -5.61136,2.221314 -3.15544,0.969084 -10.41808,1.207674 -13.703,0.450163 z m 12.95984,-6.013219 c 3.25765,-1.401404 3.3241,-1.743873 3.3241,-17.132214 0,-12.255482 -0.0501,-13.068397 -0.89367,-14.504318 -1.42847,-2.431485 -4.45202,-3.728709 -9.12415,-3.914621 -8.00081,-0.318364 -12.9497,2.951219 -15.73502,10.395652 -2.85743,7.637176 -1.91312,16.686581 2.23416,21.410072 3.97101,4.522728 14.04465,6.391055 20.19458,3.745429 z"
     id="path847"
     transform="scale(0.75)" />
</svg>
