<?xml version="1.0" standalone="no"?>
<!DOCTYPE svg PUBLIC "-//W3C//DTD SVG 20010904//EN"
 "http://www.w3.org/TR/2001/REC-SVG-20010904/DTD/svg10.dtd">
<svg version="1.0" xmlns="http://www.w3.org/2000/svg"
 width="372.000000pt" height="72.000000pt" viewBox="0 0 372.000000 72.000000"
 preserveAspectRatio="xMidYMid meet">

<g transform="translate(0.000000,72.000000) scale(0.100000,-0.100000)"
fill="#000000" stroke="none">
<path d="M322 648 c-90 -39 -160 -110 -178 -183 l-7 -27 26 17 c15 9 29 25 32
35 9 30 86 101 130 121 57 26 168 25 229 -2 47 -20 121 -89 131 -120 8 -23 55
-55 55 -37 0 21 -38 86 -71 122 -78 86 -238 120 -347 74z"/>
<path d="M3470 595 l0 -76 -37 8 c-87 18 -160 -6 -199 -65 -28 -41 -27 -180 2
-219 48 -67 158 -91 242 -53 l42 19 -2 228 c-3 228 -3 228 -25 231 -22 3 -23
0 -23 -73z m-22 -121 c20 -14 22 -23 22 -123 0 -75 -4 -112 -12 -118 -36 -29
-125 -20 -160 15 -49 48 -42 166 12 215 35 32 101 37 138 11z"/>
<path d="M371 589 c-35 -11 -116 -58 -109 -64 2 -2 23 3 47 11 89 31 190 27
296 -10 14 -6 11 0 -10 18 -54 47 -149 66 -224 45z"/>
<path d="M1013 530 c-97 -23 -146 -116 -122 -230 33 -152 246 -177 310 -36 66
146 -43 301 -188 266z m96 -54 c36 -19 51 -55 51 -121 0 -68 -12 -99 -46 -121
-81 -54 -174 8 -174 115 0 112 81 172 169 127z"/>
<path d="M1425 534 c-48 -11 -96 -39 -101 -58 -2 -12 -3 -113 -2 -226 l3 -205
25 0 c24 0 25 3 28 72 l3 72 25 -9 c71 -27 166 3 204 65 17 27 22 51 22 103 1
87 -24 137 -82 167 -29 15 -97 25 -125 19z m89 -54 c45 -17 68 -66 64 -138 -4
-54 -8 -67 -35 -93 -26 -26 -39 -31 -81 -32 -77 -1 -82 7 -82 139 0 97 2 114
18 123 22 13 83 14 116 1z"/>
<path d="M1827 526 c-49 -18 -64 -32 -89 -79 -28 -56 -23 -158 11 -206 46 -64
157 -90 231 -53 42 20 57 59 19 48 -64 -19 -94 -24 -126 -19 -39 7 -93 55 -93
83 0 21 8 23 147 41 51 6 98 18 104 25 12 15 -2 77 -26 112 -34 48 -117 70
-178 48z m124 -65 c26 -27 40 -70 22 -72 -5 0 -51 -6 -103 -13 -52 -7 -97 -11
-99 -10 -2 2 1 22 8 43 24 82 115 109 172 52z"/>
<path d="M2217 526 c-85 -23 -87 -28 -87 -198 l0 -148 25 0 25 0 0 139 c0 160
1 162 83 169 42 3 57 0 77 -16 24 -19 25 -26 30 -154 5 -129 6 -133 28 -136
13 -2 22 2 23 10 3 89 -4 275 -12 290 -23 43 -116 65 -192 44z"/>
<path d="M2643 530 c-23 -5 -53 -16 -67 -26 l-26 -16 0 -154 0 -154 25 0 25 0
0 144 0 144 31 11 c18 6 51 11 75 11 43 0 64 14 47 31 -14 14 -65 18 -110 9z"/>
<path d="M2925 525 c-48 -17 -93 -67 -101 -113 -10 -55 1 -140 22 -170 47 -64
162 -91 234 -54 42 20 57 59 19 48 -69 -21 -97 -24 -134 -16 -66 15 -114 94
-62 104 12 2 67 10 122 18 l100 13 3 40 c6 97 -102 167 -203 130z m126 -64
c16 -16 29 -38 29 -49 0 -22 -13 -26 -115 -37 -33 -3 -68 -8 -77 -11 -38 -11
-10 79 34 110 38 27 95 20 129 -13z"/>
<path d="M355 509 c-54 -18 -151 -69 -189 -101 l-37 -31 26 -27 c37 -39 158
-96 233 -111 55 -12 71 -11 130 5 37 10 69 21 72 26 3 4 16 11 30 15 14 4 49
26 79 48 l55 40 -40 33 c-108 92 -260 135 -359 103z m145 -24 c58 -30 79 -122
41 -179 -54 -81 -166 -73 -211 14 -25 50 -25 66 3 115 36 63 103 83 167 50z"/>
<path d="M386 418 c-45 -64 24 -136 94 -98 27 14 35 65 16 95 -22 34 -88 35
-110 3z m82 -10 c18 -18 15 -42 -7 -62 -15 -14 -24 -15 -40 -6 -36 19 -22 80
19 80 9 0 21 -5 28 -12z"/>
<path d="M130 303 c0 -5 13 -33 29 -63 106 -208 397 -229 536 -40 19 26 38 62
41 80 6 30 5 31 -12 20 -10 -7 -34 -36 -52 -64 -63 -98 -181 -151 -284 -127
-71 16 -137 59 -173 112 -48 73 -86 109 -85 82z"/>
<path d="M255 221 c11 -13 40 -35 65 -50 37 -21 57 -26 115 -26 76 0 122 16
169 60 27 25 30 49 4 27 -18 -14 -129 -42 -170 -42 -30 0 -134 26 -183 45 -20
8 -20 8 0 -14z"/>
</g>
</svg>
